HIERARCHY
ROOT hip
{
  OFFSET 0 0 0
  CHANNELS 6 Xposition Yposition Zposition Zrotation Yrotation Xrotation
  JOINT abdomen
  {
    OFFSET 0 20.6881 -0.73152
    CHANNELS 3 Zrotation Xrotation Yrotation
    JOINT chest
    {
      OFFSET 0 11.7043 -0.48768
      CHANNELS 3 Zrotation Xrotation Yrotation
      JOINT neck
      {
        OFFSET 0 22.1894 -2.19456
        CHANNELS 3 Zrotation Xrotation Yrotation
        JOINT head
        {
          OFFSET -0.24384 7.07133 1.2192
          CHANNELS 3 Zrotation Xrotation Yrotation
          JOINT leftEye
          {
            OFFSET 4.14528 8.04674 8.04672
            CHANNELS 3 Zrotation Xrotation Yrotation
            End Site
            {
              OFFSET 1 0 0
            }
          }
          JOINT rightEye
          {
            OFFSET -3.6576 8.04674 8.04672
            CHANNELS 3 Zrotation Xrotation Yrotation
            End Site
            {
              OFFSET 1 0 0
            }
          }
        }
      }
      JOINT rCollar
      {
        OFFSET -2.68224 19.2634 -4.8768
        CHANNELS 3 Zrotation Xrotation Yrotation
        JOINT rShldr
        {
          OFFSET -8.77824 -1.95073 1.46304
          CHANNELS 3 Zrotation Xrotation Yrotation
          JOINT rForeArm
          {
            OFFSET -28.1742 -1.7115 0.48768
            CHANNELS 3 Zrotation Xrotation Yrotation
            JOINT rHand
            {
              OFFSET -22.5879 0.773209 7.07136
              CHANNELS 3 Zrotation Xrotation Yrotation
              JOINT rThumb1
              {
                OFFSET -1.2192 -0.487915 3.41376
                CHANNELS 3 Zrotation Xrotation Yrotation
                JOINT rThumb2
                {
                  OFFSET -3.37035 -0.52449 3.41376
                  CHANNELS 3 Zrotation Xrotation Yrotation
                  End Site
                  {
                    OFFSET -1.78271 -1.18214 1.43049
                  }
                }
              }
              JOINT rIndex1
              {
                OFFSET -7.75947 0.938293 5.60832
                CHANNELS 3 Zrotation Xrotation Yrotation
                JOINT rIndex2
                {
                  OFFSET -2.54057 -0.884171 1.56538
                  CHANNELS 3 Zrotation Xrotation Yrotation
                  End Site
                  {
                    OFFSET -1.62519 -0.234802 1.16502
                  }
                }
              }
              JOINT rMid1
              {
                OFFSET -8.24714 1.18213 3.41376
                CHANNELS 3 Zrotation Xrotation Yrotation
                JOINT rMid2
                {
                  OFFSET -3.10165 -0.590103 1.0647
                  CHANNELS 3 Zrotation Xrotation Yrotation
                  End Site
                  {
                    OFFSET -2.48547 -0.328903 0.83742
                  }
                }
              }
              JOINT rRing1
              {
                OFFSET -8.82822 0.546677 1.51678
                CHANNELS 3 Zrotation Xrotation Yrotation
                JOINT rRing2
                {
                  OFFSET -2.60934 -0.819778 -0.0198488
                  CHANNELS 3 Zrotation Xrotation Yrotation
                  End Site
                  {
                    OFFSET -2.33842 -0.294052 0.168128
                  }
                }
              }
              JOINT rPinky1
              {
                OFFSET -8.27202 -0.0477905 -0.4584
                CHANNELS 3 Zrotation Xrotation Yrotation
                JOINT rPinky2
                {
                  OFFSET -1.82734 -0.647385 -0.700984
                  CHANNELS 3 Zrotation Xrotation Yrotation
                  End Site
                  {
                    OFFSET -1.69225 -0.51767 -0.607171
                  }
                }
              }
            }
          }
        }
      }
      JOINT lCollar
      {
        OFFSET 2.68224 19.2634 -4.8768
        CHANNELS 3 Zrotation Xrotation Yrotation
        JOINT lShldr
        {
          OFFSET 8.77824 -1.95073 1.46304
          CHANNELS 3 Zrotation Xrotation Yrotation
          JOINT lForeArm
          {
            OFFSET 28.1742 -1.7115 0.48768
            CHANNELS 3 Zrotation Xrotation Yrotation
            JOINT lHand
            {
              OFFSET 22.5879 0.773209 7.07136
              CHANNELS 3 Zrotation Xrotation Yrotation
              JOINT lThumb1
              {
                OFFSET 1.2192 -0.487915 3.41376
                CHANNELS 3 Zrotation Xrotation Yrotation
                JOINT lThumb2
                {
                  OFFSET 3.37035 -0.52449 3.41376
                  CHANNELS 3 Zrotation Xrotation Yrotation
                  End Site
                  {
                    OFFSET 1.78271 -1.18214 1.43049
                  }
                }
              }
              JOINT lIndex1
              {
                OFFSET 7.75947 0.938293 5.60832
                CHANNELS 3 Zrotation Xrotation Yrotation
                JOINT lIndex2
                {
                  OFFSET 2.54057 -0.884171 1.56538
                  CHANNELS 3 Zrotation Xrotation Yrotation
                  End Site
                  {
                    OFFSET 1.62519 -0.234802 1.16502
                  }
                }
              }
              JOINT lMid1
              {
                OFFSET 8.24714 1.18213 3.41376
                CHANNELS 3 Zrotation Xrotation Yrotation
                JOINT lMid2
                {
                  OFFSET 3.10165 -0.590103 1.0647
                  CHANNELS 3 Zrotation Xrotation Yrotation
                  End Site
                  {
                    OFFSET 2.48547 -0.328903 0.83742
                  }
                }
              }
              JOINT lRing1
              {
                OFFSET 8.82822 0.546677 1.51678
                CHANNELS 3 Zrotation Xrotation Yrotation
                JOINT lRing2
                {
                  OFFSET 2.60934 -0.819778 -0.0198488
                  CHANNELS 3 Zrotation Xrotation Yrotation
                  End Site
                  {
                    OFFSET 2.33842 -0.294052 0.168128
                  }
                }
              }
              JOINT lPinky1
              {
                OFFSET 8.27202 -0.0477905 -0.4584
                CHANNELS 3 Zrotation Xrotation Yrotation
                JOINT lPinky2
                {
                  OFFSET 1.82734 -0.647385 -0.700984
                  CHANNELS 3 Zrotation Xrotation Yrotation
                  End Site
                  {
                    OFFSET 1.69225 -0.51767 -0.607171
                  }
                }
              }
            }
          }
        }
      }
    }
  }
  JOINT rButtock
  {
    OFFSET -8.77824 4.35084 1.2192
    CHANNELS 3 Zrotation Xrotation Yrotation
    JOINT rThigh
    {
      OFFSET 0 -1.70687 -2.19456
      CHANNELS 3 Zrotation Xrotation Yrotation
      JOINT rShin
      {
        OFFSET 0 -36.8199 0.73152
        CHANNELS 3 Zrotation Xrotation Yrotation
        JOINT rFoot
        {
          OFFSET 0.73152 -45.1104 -5.12064
          CHANNELS 3 Zrotation Xrotation Yrotation
          End Site
          {
            OFFSET -1.1221 -3.69964 12.103
          }
        }
      }
    }
  }
  JOINT lButtock
  {
    OFFSET 8.77824 4.35084 1.2192
    CHANNELS 3 Zrotation Xrotation Yrotation
    JOINT lThigh
    {
      OFFSET 0 -1.70687 -2.19456
      CHANNELS 3 Zrotation Xrotation Yrotation
      JOINT lShin
      {
        OFFSET 0 -36.8199 0.73152
        CHANNELS 3 Zrotation Xrotation Yrotation
        JOINT lFoot
        {
          OFFSET -0.73152 -45.1104 -5.12064
          CHANNELS 3 Zrotation Xrotation Yrotation
          End Site
          {
            OFFSET 1.1221 -3.69964 12.103
          }
        }
      }
    }
  }
}
MOTION
Frames:	5
Frame Time:	0.00833333
-59.9033 69.2941 4.0147 -9.2573 77.5558 11.9265 7.86897 35.6101 -15.3648 8.25558 -1.46967 -2.60938 -4.06637 5.34266 7.33785 15.572 -50.9337 26.1725 -0.0 0.0 0.0 -0.0 0.0 0.0 1.72885e-13 -4.79739e-13 4.95009e-14 34.5003 19.5501 72.1401 -27.411 -42.6673 89.0241 -0.392395 17.7255 2.57136 6.93221e-11 -3.84996e-10 1.05623e-09 1.31005e-10 -6.6441e-10 1.82507e-09 6.93221e-11 -3.84998e-10 1.05622e-09 7.73091 5.47488 0.417314 6.93222e-11 -3.84994e-10 1.05623e-09 2.90554 0.965183 0.102902 6.93285e-11 -3.84995e-10 1.05623e-09 10.2786 0.731801 0.0259123 6.93173e-11 -3.84993e-10 1.05623e-09 2.22167 -0.733487 -0.20892 1.72713e-13 -4.79702e-13 4.91709e-14 -87.9531 50.1816 10.311 23.0422 -17.4557 -46.4325 0.38096 -17.28 2.50584 4.24245e-10 -3.05987e-10 1.08098e-10 7.33615e-10 -5.29528e-10 1.91045e-10 4.24241e-10 -3.05989e-10 1.08104e-10 -7.73091 5.47488 -0.417314 4.24245e-10 -3.05988e-10 1.08093e-10 -2.90554 0.965183 -0.102902 4.24237e-10 -3.0599e-10 1.08099e-10 -10.2786 0.731801 -0.0259123 4.24252e-10 -3.05989e-10 1.08089e-10 -2.22167 -0.733487 0.20892 -2.03217e-16 0.0 -3.88251e-19 -17.1355 -69.218 -13.6591 -3.295 76.0744 3.92202 -4.15461 -18.2585 -9.52966 2.03217e-16 0.0 3.88251e-19 -8.71868 -11.0059 7.0323 1.31637 66.1359 -2.69451 1.57402 3.06155 3.8127
-57.4632 69.3544 4.19984 -13.5181 77.3319 7.4421 8.54067 36.2239 -13.9718 7.5196 -1.67026 -2.17072 -3.98624 5.21633 6.86627 15.9111 -51.2498 25.4293 -0.0 0.0 0.0 -0.0 0.0 0.0 1.71828e-13 -4.72349e-13 3.83157e-14 31.6907 18.3197 73.3649 -27.7512 -41.5646 86.7742 -0.517402 20.0052 2.93294 -6.34e-11 -3.2372e-10 8.98319e-10 -9.85427e-11 -5.59736e-10 1.55296e-09 -6.3402e-11 -3.2372e-10 8.98313e-10 7.73091 5.47488 0.417314 -6.34002e-11 -3.23716e-10 8.98319e-10 2.90554 0.965183 0.102902 -6.33945e-11 -3.23717e-10 8.98317e-10 10.2786 0.731801 0.0259123 -6.3404e-11 -3.23716e-10 8.98322e-10 2.22167 -0.733487 -0.20892 1.71682e-13 -4.72276e-13 3.80176e-14 -90.9993 50.5612 13.0191 22.064 -15.8537 -43.9627 0.370373 -17.0505 2.4704 7.72358e-10 -1.43074e-10 -2.26265e-10 1.34021e-09 -2.48875e-10 -3.81624e-10 7.72354e-10 -1.43079e-10 -2.26258e-10 -7.73091 5.47488 -0.417314 7.72352e-10 -1.43079e-10 -2.26268e-10 -2.90554 0.965183 -0.102902 7.72351e-10 -1.4308e-10 -2.26265e-10 -10.2786 0.731801 -0.0259123 7.72362e-10 -1.43079e-10 -2.26271e-10 -2.22167 -0.733487 0.20892 -2.03217e-16 0.0 -3.88251e-19 -15.468 -66.8618 -12.4733 -3.40984 76.3659 3.96025 -4.51406 -20.1519 -9.60577 2.03217e-16 0.0 3.88251e-19 -6.71912 -14.6495 8.33389 2.11284 72.1523 -3.36471 1.6838 2.94985 4.3978
-55.1097 69.2876 4.42392 -19.2126 77.027 1.5462 9.60223 36.9516 -12.4069 6.5148 -1.8423 -1.64584 -3.8076 5.05637 6.25149 16.2259 -51.8998 24.446 -0.0 0.0 0.0 -0.0 0.0 0.0 2.05664e-13 -5.66787e-13 3.03558e-14 29.6765 17.0996 73.8236 -28.0399 -40.2461 84.4147 -0.629417 21.8068 3.22566 -1.46381e-10 -1.9328e-10 6.83047e-10 -2.42989e-10 -3.34307e-10 1.18252e-09 -1.46383e-10 -1.93279e-10 6.83038e-10 7.73091 5.47488 0.417314 -1.46381e-10 -1.93276e-10 6.83048e-10 2.90554 0.965183 0.102902 -1.46375e-10 -1.93276e-10 6.83044e-10 10.2786 0.731801 0.0259123 -1.46384e-10 -1.93276e-10 6.83049e-10 2.22167 -0.733487 -0.20892 2.05585e-13 -5.66707e-13 3.00871e-14 -93.4355 50.7665 15.5146 21.1955 -14.5697 -41.8292 0.39793 -17.6799 2.56726 3.83505e-10 1.73498e-11 -2.23032e-10 6.68646e-10 2.72907e-11 -3.82271e-10 3.83502e-10 1.73455e-11 -2.23025e-10 -7.73091 5.47488 -0.417314 3.83499e-10 1.73467e-11 -2.23033e-10 -2.90554 0.965183 -0.102902 3.835e-10 1.7345e-11 -2.23031e-10 -10.2786 0.731801 -0.0259123 3.83509e-10 1.73471e-11 -2.23037e-10 -2.22167 -0.733487 0.20892 -2.03217e-16 0.0 -3.88251e-19 -13.4116 -64.4684 -11.5459 -3.34945 76.1068 3.82928 -5.38202 -21.0429 -11.0073 2.03217e-16 0.0 3.88251e-19 -4.04133 -18.6921 9.7059 3.72672 77.952 -4.84126 1.77365 2.83153 4.78625
-52.7622 69.2404 4.59452 -23.9889 76.6859 -3.4534 10.9426 37.782 -10.6472 5.27728 -2.01712 -1.04059 -3.56431 4.882 5.51 16.5409 -52.8111 23.2443 -0.0 0.0 0.0 -0.0 0.0 0.0 2.57027e-13 -7.14249e-13 2.27298e-14 28.2374 15.9103 73.7204 -28.2209 -38.6696 82.0045 -0.717798 23.235 3.46063 -2.31107e-10 -2.50997e-11 3.96635e-10 -3.91214e-10 -4.29947e-11 6.89718e-10 -2.31109e-10 -2.50972e-11 3.96621e-10 7.73091 5.47488 0.417314 -2.31107e-10 -2.50966e-11 3.96636e-10 2.90554 0.965183 0.102902 -2.311e-10 -2.50953e-11 3.96631e-10 10.2786 0.731801 0.0259123 -2.3111e-10 -2.50956e-11 3.96635e-10 2.22167 -0.733487 -0.20892 2.57047e-13 -7.1418e-13 2.24937e-14 -95.3688 50.7908 17.822 20.4372 -13.5607 -39.8588 0.457068 -18.8771 2.7545 -4.42522e-10 1.96629e-10 -2.08314e-11 -7.61204e-10 3.35528e-10 -4.57794e-11 -4.42523e-10 1.96628e-10 -2.08237e-11 -7.73091 5.47488 -0.417314 -4.42525e-10 1.9663e-10 -2.0831e-11 -2.90554 0.965183 -0.102902 -4.42524e-10 1.96628e-10 -2.08306e-11 -10.2786 0.731801 -0.0259123 -4.42517e-10 1.96631e-10 -2.08354e-11 -2.22167 -0.733487 0.20892 -2.03217e-16 0.0 -3.88251e-19 -10.9713 -61.9768 -10.7102 -3.19976 75.5215 3.6104 -6.59663 -21.3338 -13.2225 2.03217e-16 0.0 3.88251e-19 -0.601969 -23.1841 11.3061 8.44571 83.7886 -9.40684 1.85582 2.68076 5.02127
-50.4696 69.2624 4.77728 -28.0903 76.2462 -7.6384 12.1788 38.6725 -8.7221 3.95961 -2.16301 -0.400893 -3.30568 4.75208 4.68035 16.8657 -53.8804 21.8857 -0.0 0.0 0.0 -0.0 0.0 0.0 2.95969e-13 -8.2534e-13 1.53305e-14 27.3371 14.7283 73.2062 -28.3379 -37.0084 79.2716 -0.786865 24.3347 3.64403 -2.66377e-10 1.25148e-10 1.24647e-10 -4.54122e-10 2.17318e-10 2.20953e-10 -2.66378e-10 1.25151e-10 1.24629e-10 7.73091 5.47488 0.417314 -2.66376e-10 1.2515e-10 1.24648e-10 2.90554 0.965183 0.102902 -2.66369e-10 1.25153e-10 1.24642e-10 10.2786 0.731801 0.0259123 -2.66379e-10 1.25152e-10 1.24646e-10 2.22167 -0.733487 -0.20892 2.9608e-13 -8.25288e-13 1.51208e-14 -96.8458 50.7508 19.9892 19.83 -12.8073 -38.2682 0.539001 -20.3824 2.99386 -1.26844e-09 3.36646e-10 2.09173e-10 -2.19137e-09 5.76125e-10 3.38967e-10 -1.26844e-09 3.36648e-10 2.09183e-10 -7.73091 5.47488 -0.417314 -1.26844e-09 3.36652e-10 2.09175e-10 -2.90554 0.965183 -0.102902 -1.26844e-09 3.3665e-10 2.09175e-10 -10.2786 0.731801 -0.0259123 -1.26843e-09 3.36654e-10 2.0917e-10 -2.22167 -0.733487 0.20892 -2.03217e-16 0.0 -3.88251e-19 -8.67991 -59.3689 -10.0287 -3.00382 74.7082 3.36034 -7.78352 -21.4121 -15.4193 2.03217e-16 0.0 3.88251e-19 3.17174 -27.8417 13.0079 57.3311 88.782 -58.1383 1.90992 2.49019 5.09088
